<?xml version="1.0" encoding="UTF-8"?>
<svg id="Layer_2" data-name="Layer 2" xmlns="http://www.w3.org/2000/svg" viewBox="0 0 380.22 78.48">
  <defs>
    <style>
      .cls-1 {
        font-family: Inter-Regular, Inter;
        font-size: 66.33px;
        font-variation-settings: 'wght' 400, 'slnt' 0;
      }

      .cls-1, .cls-2 {
        fill: #fff;
      }

      .cls-3 {
        letter-spacing: 0em;
      }

      .cls-4 {
        letter-spacing: -.02em;
      }
    </style>
  </defs>
  <g id="Layer_1-2" data-name="Layer 1">
    <g>
      <path class="cls-2" d="M72.92,42.25c0-8.29-6.75-15.04-15.04-15.04s-15.04,6.75-15.04,15.04c0,6.96,4.71,12.96,11.46,14.61h0c1.16,.28,2.37,.43,3.58,.43,8.29,0,15.04-6.75,15.04-15.04Z"/>
      <path class="cls-2" d="M12.78,22.53c0,8.29,6.75,15.04,15.04,15.04s15.04-6.75,15.04-15.04c0-6.96-4.71-12.96-11.46-14.61h0c-1.16-.28-2.37-.43-3.58-.43-8.29,0-15.04,6.75-15.04,15.04Z"/>
      <path class="cls-2" d="M60.42,7.11c-6.46,0-12.54,2.4-17.23,6.79,1.44,2.57,2.25,5.52,2.25,8.63,0,9.72-7.9,17.62-17.62,17.62s-17.62-7.9-17.62-17.62c0-5.78,2.79-10.91,7.1-14.13C7.26,11.76,0,21.24,0,32.39c0,13.94,11.34,25.28,25.28,25.28,6.46,0,12.54-2.4,17.23-6.79-1.44-2.57-2.25-5.52-2.25-8.63,0-9.72,7.9-17.62,17.62-17.62s17.62,7.9,17.62,17.62c0,5.78-2.79,10.91-7.1,14.13,10.04-3.35,17.29-12.83,17.29-23.98,0-13.94-11.34-25.28-25.28-25.28Z"/>
    </g>
    <text class="cls-1" transform="translate(92.2 57.28)"><tspan x="0" y="0">E</tspan><tspan class="cls-4" x="39.67" y="0">v</tspan><tspan class="cls-3" x="75.28" y="0">erbility</tspan></text>
  </g>
</svg>