<?xml version="1.0" encoding="UTF-8"?>
<svg id="Layer_2" data-name="Layer 2" xmlns="http://www.w3.org/2000/svg" viewBox="0 0 85.7 50.55">
  <defs>
    <style>
      .cls-1 {
        fill: #806ae4;
      }

      .cls-2 {
        fill: #5046e4;
      }

      .cls-3 {
        fill: #506ae4;
      }
    </style>
  </defs>
  <g id="Layer_1-2" data-name="Layer 1">
    <g>
      <path class="cls-1" d="M72.92,35.13c0-8.29-6.75-15.04-15.04-15.04s-15.04,6.75-15.04,15.04c0,6.96,4.71,12.96,11.46,14.61h0c1.16,.28,2.37,.43,3.58,.43,8.29,0,15.04-6.75,15.04-15.04Z"/>
      <path class="cls-3" d="M12.78,15.42c0,8.29,6.75,15.04,15.04,15.04s15.04-6.75,15.04-15.04c0-6.96-4.71-12.96-11.46-14.61h0c-1.16-.28-2.37-.43-3.58-.43C19.52,.38,12.78,7.13,12.78,15.42Z"/>
      <path class="cls-2" d="M60.42,0c-6.46,0-12.54,2.4-17.23,6.79,1.44,2.57,2.25,5.52,2.25,8.63,0,9.72-7.9,17.62-17.62,17.62S10.19,25.14,10.19,15.42c0-5.78,2.79-10.91,7.1-14.13C7.26,4.64,0,14.13,0,25.28c0,13.94,11.34,25.28,25.28,25.28,6.46,0,12.54-2.4,17.23-6.79-1.44-2.57-2.25-5.52-2.25-8.63,0-9.72,7.9-17.62,17.62-17.62s17.62,7.9,17.62,17.62c0,5.78-2.79,10.91-7.1,14.13,10.04-3.35,17.29-12.83,17.29-23.98,0-13.94-11.34-25.28-25.28-25.28Z"/>
    </g>
  </g>
</svg>