<?xml version="1.0" encoding="UTF-8"?>
<svg id="Layer_2" data-name="Layer 2" xmlns="http://www.w3.org/2000/svg" viewBox="0 0 377.96 63.74">
  <defs>
    <style>
      .cls-1 {
        fill: #806ae4;
      }

      .cls-2 {
        fill: #5046e4;
      }

      .cls-3 {
        fill: #506ae4;
      }
    </style>
  </defs>
  <g id="Layer_1-2" data-name="Layer 1">
    <g>
      <path class="cls-1" d="M72.92,35.13c0-8.29-6.75-15.04-15.04-15.04s-15.04,6.75-15.04,15.04c0,6.96,4.71,12.96,11.46,14.61h0c1.16,.28,2.37,.43,3.58,.43,8.29,0,15.04-6.75,15.04-15.04Z"/>
      <path class="cls-3" d="M12.78,15.42c0,8.29,6.75,15.04,15.04,15.04s15.04-6.75,15.04-15.04c0-6.96-4.71-12.96-11.46-14.61h0c-1.16-.28-2.37-.43-3.58-.43C19.52,.38,12.78,7.13,12.78,15.42Z"/>
      <path class="cls-2" d="M60.42,0c-6.46,0-12.54,2.4-17.23,6.79,1.44,2.57,2.25,5.52,2.25,8.63,0,9.72-7.9,17.62-17.62,17.62S10.19,25.14,10.19,15.42c0-5.78,2.79-10.91,7.1-14.13C7.26,4.64,0,14.13,0,25.28c0,13.94,11.34,25.28,25.28,25.28,6.46,0,12.54-2.4,17.23-6.79-1.44-2.57-2.25-5.52-2.25-8.63,0-9.72,7.9-17.62,17.62-17.62s17.62,7.9,17.62,17.62c0,5.78-2.79,10.91-7.1,14.13,10.04-3.35,17.29-12.83,17.29-23.98,0-13.94-11.34-25.28-25.28-25.28Z"/>
    </g>
    <g>
      <path class="cls-2" d="M98.04,50.17V1.93h29.11V7.11h-23.27V23.41h21.76v5.18h-21.76v16.39h23.65v5.18h-29.49Z"/>
      <path class="cls-2" d="M166.54,13.99l-13.38,36.18h-5.65l-13.38-36.18h6.03l9.99,28.83h.38l9.99-28.83h6.03Z"/>
      <path class="cls-2" d="M187.73,50.92c-3.49,0-6.49-.77-9.01-2.32-2.52-1.55-4.46-3.71-5.82-6.5-1.36-2.79-2.04-6.03-2.04-9.74s.68-6.98,2.04-9.81c1.36-2.83,3.26-5.05,5.7-6.64,2.44-1.59,5.3-2.39,8.56-2.39,1.88,0,3.75,.31,5.58,.94s3.51,1.64,5.02,3.05c1.51,1.41,2.71,3.26,3.6,5.57,.89,2.31,1.34,5.15,1.34,8.53v2.36h-27.89v-4.81h22.24c0-2.04-.4-3.86-1.21-5.46-.81-1.6-1.96-2.87-3.44-3.79-1.48-.93-3.23-1.39-5.24-1.39-2.21,0-4.13,.55-5.74,1.64-1.61,1.09-2.85,2.51-3.71,4.25-.86,1.74-1.3,3.61-1.3,5.61v3.2c0,2.73,.47,5.04,1.42,6.94,.95,1.89,2.27,3.33,3.97,4.31,1.7,.98,3.67,1.47,5.91,1.47,1.46,0,2.78-.21,3.97-.62,1.19-.42,2.21-1.04,3.07-1.88s1.53-1.89,2-3.14l5.37,1.51c-.57,1.82-1.52,3.42-2.85,4.79s-2.98,2.44-4.95,3.2-4.17,1.14-6.62,1.14Z"/>
      <path class="cls-2" d="M211.19,50.17V13.99h5.37v5.46h.38c.66-1.79,1.85-3.24,3.58-4.36s3.67-1.67,5.84-1.67c.41,0,.92,0,1.53,.02s1.08,.04,1.39,.07v5.65c-.19-.05-.62-.12-1.28-.22-.67-.1-1.37-.15-2.11-.15-1.76,0-3.33,.37-4.7,1.09-1.37,.73-2.46,1.74-3.25,3.02-.79,1.28-1.19,2.74-1.19,4.37v22.89h-5.56Z"/>
      <path class="cls-2" d="M236.63,50.17V1.93h5.56V19.74h.47c.41-.63,.98-1.43,1.71-2.42,.73-.98,1.78-1.86,3.16-2.64,1.38-.78,3.24-1.17,5.59-1.17,3.05,0,5.73,.76,8.06,2.29,2.32,1.52,4.14,3.68,5.44,6.48,1.3,2.8,1.96,6.09,1.96,9.89s-.65,7.15-1.96,9.95c-1.3,2.8-3.11,4.97-5.42,6.5s-4.97,2.3-7.98,2.3c-2.32,0-4.19-.39-5.58-1.17-1.4-.78-2.47-1.66-3.23-2.66-.75-1-1.33-1.83-1.74-2.48h-.66v5.56h-5.37Zm5.46-18.09c0,2.73,.4,5.14,1.2,7.22,.8,2.08,1.97,3.71,3.51,4.88s3.42,1.75,5.65,1.75,4.27-.62,5.83-1.85c1.56-1.23,2.74-2.9,3.53-4.99,.79-2.1,1.19-4.43,1.19-7.01s-.39-4.84-1.17-6.89c-.78-2.05-1.95-3.67-3.51-4.88-1.56-1.2-3.52-1.8-5.88-1.8s-4.16,.57-5.7,1.71-2.7,2.72-3.49,4.76c-.78,2.03-1.18,4.4-1.18,7.1Z"/>
      <path class="cls-2" d="M279.88,7.96c-1.08,0-2.01-.37-2.79-1.11-.78-.74-1.17-1.62-1.17-2.66s.39-1.92,1.17-2.66c.78-.74,1.71-1.11,2.79-1.11s2.01,.37,2.79,1.11c.78,.74,1.17,1.62,1.17,2.66s-.39,1.92-1.17,2.66c-.78,.74-1.71,1.11-2.79,1.11Zm-2.83,42.21V13.99h5.56V50.17h-5.56Z"/>
      <path class="cls-2" d="M298.34,1.93V50.17h-5.56V1.93h5.56Z"/>
      <path class="cls-2" d="M311.34,7.96c-1.08,0-2.01-.37-2.79-1.11-.78-.74-1.17-1.62-1.17-2.66s.39-1.92,1.17-2.66c.78-.74,1.71-1.11,2.79-1.11s2.01,.37,2.79,1.11c.78,.74,1.17,1.62,1.17,2.66s-.39,1.92-1.17,2.66c-.78,.74-1.71,1.11-2.79,1.11Zm-2.83,42.21V13.99h5.56V50.17h-5.56Z"/>
      <path class="cls-2" d="M339.99,13.99v4.71h-18.75v-4.71h18.75Zm-13.29-8.67h5.56V39.81c0,1.57,.23,2.74,.7,3.52s1.06,1.3,1.79,1.55,1.5,.39,2.32,.39c.61,0,1.11-.04,1.51-.11,.39-.07,.71-.13,.94-.18l1.13,4.99c-.38,.14-.9,.29-1.58,.44-.68,.15-1.53,.22-2.57,.22-1.57,0-3.11-.34-4.6-1.01-1.5-.67-2.74-1.7-3.72-3.08-.98-1.38-1.47-3.12-1.47-5.23V5.32Z"/>
      <path class="cls-2" d="M351.95,63.74c-.94,0-1.78-.08-2.52-.22-.74-.15-1.25-.29-1.53-.44l1.41-4.9c1.35,.34,2.54,.47,3.58,.38,1.04-.09,1.96-.55,2.77-1.38,.81-.83,1.55-2.16,2.23-3.99l1.04-2.83-13.38-36.37h6.03l9.99,28.83h.38l9.99-28.83h6.03l-15.36,41.46c-.69,1.87-1.55,3.42-2.57,4.65-1.02,1.23-2.2,2.15-3.54,2.74s-2.85,.9-4.53,.9Z"/>
    </g>
  </g>
</svg>